<svg xmlns="http://www.w3.org/2000/svg" width="80.17" height="101.939" viewBox="0 0 80.17 101.939"><defs><style>.c{fill:#84d1dc;}.d{fill:#7264cc;}</style></defs><path class="c" d="M80.17,28.05H6.28v73.89Z" transform="translate(-6.28 0)"/><path class="d" d="M24.59,11.97h7.14l-3.57,6.16Z" transform="translate(23.85 0)"/><path class="d" d="M24.59,0h7.14L28.16,6.16Z" transform="translate(23.85)"/><path class="d" d="M0,0H7l.11.06L3.57,6.16Z" transform="translate(73.06)"/><path class="d" d="M24.59,23.94h7.14L28.16,30.1Z" transform="translate(23.85 0)"/><path class="d" d="M12.28,11.97h7.14l-3.57,6.16Z" transform="translate(48.47 0)"/><path class="d" d="M12.28,0h7.14L15.85,6.16Z" transform="translate(48.47)"/><path class="d" d="M49.21,23.94h7.15L52.79,30.1Z" transform="translate(-25.4 0)"/><path class="d" d="M49.21,35.91h7.15l-3.57,6.16Z" transform="translate(-25.4 0)"/><path class="d" d="M49.21,47.88h7.15l-3.57,6.16Z" transform="translate(-25.4 0)"/><path class="d" d="M36.9,35.91h7.15l-3.57,6.16Z" transform="translate(-0.78 0)"/><path class="d" d="M36.9,0h7.15L40.48,6.16Z" transform="translate(-0.78)"/><path class="d" d="M36.9,11.97h7.15l-3.57,6.16Z" transform="translate(-0.78 0)"/><path class="d" d="M36.9,23.94h7.15L40.48,30.1Z" transform="translate(-0.78 0)"/><path class="d" d="M49.21,0h7.15L52.79,6.16Z" transform="translate(-25.4)"/><path class="d" d="M49.21,11.97h7.15l-3.57,6.16Z" transform="translate(-25.4 0)"/></svg>