<svg xmlns="http://www.w3.org/2000/svg"  viewBox="0 0 50.67 61.468"><defs><style>.i{fill:#ff327d;}</style></defs><g transform="translate(-0.01 0)"><path class="i" d="M1,47.53,24.84,61.29l.14.08a.71.71,0,0,0,.72,0l.13-.08L49.68,47.53l.64-.37a.72.72,0,0,0,.36-.62V14.91a.73.73,0,0,0-.36-.63l-.64-.36L25.77.12a.85.85,0,0,0-.87,0L1,13.92l-.63.36a.73.73,0,0,0-.36.63V46.54a.72.72,0,0,0,.36.62ZM49.68,45h0v.84h0v.58L25.83,60.15V29.41L49.68,15.64ZM25.34,1,49.18,14.78,25.83,28.26l-.49.29-.5-.29L1.49,14.78ZM1,15.64,24.84,29.41V60.15L1,46.38Z"/></g></svg>