<svg xmlns="http://www.w3.org/2000/svg" width="80.12" height="101.94" viewBox="0 0 80.12 101.94"><defs><style>.e{fill:#f4d8d6;}.f{fill:#7264cc;}</style></defs><path class="e" d="M73.89,73.89H0V0Z"/><path class="f" d="M48.44,89.97h7.14l-3.57-6.16Z"/><path class="f" d="M48.44,101.94h7.14l-3.57-6.16Z"/><path class="f" d="M73.06,101.94h7l.06-.06-3.53-6.1Z"/><path class="f" d="M48.44,78h7.14l-3.57-6.16Z"/><path class="f" d="M60.75,89.97H67.9l-3.58-6.16Z"/><path class="f" d="M60.75,101.94H67.9l-3.58-6.16Z"/><path class="f" d="M23.82,78h7.14l-3.57-6.16Z"/><path class="f" d="M23.82,66.03h7.14l-3.57-6.16Z"/><path class="f" d="M23.82,54.06h7.14L27.39,47.9Z"/><path class="f" d="M36.13,66.03h7.14L39.7,59.87Z"/><path class="f" d="M36.13,101.94h7.14L39.7,95.78Z"/><path class="f" d="M36.13,89.97h7.14L39.7,83.81Z"/><path class="f" d="M36.13,78h7.14L39.7,71.84Z"/><path class="f" d="M23.82,101.94h7.14l-3.57-6.16Z"/><path class="f" d="M23.82,89.97h7.14l-3.57-6.16Z"/></svg>