<svg xmlns="http://www.w3.org/2000/svg" width="533.81" height="54.041" viewBox="0 0 533.81 54.041"><defs><style>.a{fill:#1e3f7d;fill-rule:evenodd;}</style></defs><g transform="translate(0.04 0.04)"><path class="a" d="M173.27,52.46a1.52,1.52,0,1,0-.438,1.088,1.52,1.52,0,0,0,.438-1.088Z"/><path class="a" d="M173.27,42.27a1.52,1.52,0,1,0-1.52,1.52,1.52,1.52,0,0,0,1.52-1.52Z"/><path class="a" d="M173.27,32.08a1.52,1.52,0,1,0-1.52,1.52A1.52,1.52,0,0,0,173.27,32.08Z"/><path class="a" d="M173.27,21.89a1.52,1.52,0,1,0-1.52,1.52A1.52,1.52,0,0,0,173.27,21.89Z"/><path class="a" d="M173.27,11.7a1.52,1.52,0,1,0-1.52,1.52A1.52,1.52,0,0,0,173.27,11.7Z"/><path class="a" d="M173.27,1.51A1.52,1.52,0,1,0,171.75,3a1.52,1.52,0,0,0,1.52-1.49Z"/><path class="a" d="M163.25,52.46a1.51,1.51,0,1,0-.431,1.087,1.52,1.52,0,0,0,.431-1.087Z"/><path class="a" d="M163.25,42.27a1.51,1.51,0,1,0-.439,1.074,1.52,1.52,0,0,0,.439-1.074Z"/><path class="a" d="M163.25,32.08a1.51,1.51,0,1,0-.439,1.074,1.52,1.52,0,0,0,.439-1.074Z"/><path class="a" d="M163.25,21.89a1.51,1.51,0,1,0-.439,1.074,1.52,1.52,0,0,0,.439-1.074Z"/><path class="a" d="M163.25,11.7a1.51,1.51,0,1,0-.439,1.074,1.52,1.52,0,0,0,.439-1.074Z"/><path class="a" d="M163.25,1.51A1.52,1.52,0,1,0,161.74,3a1.52,1.52,0,0,0,1.51-1.49Z"/><path class="a" d="M153.24,52.46a1.52,1.52,0,1,0-.435,1.084,1.52,1.52,0,0,0,.435-1.084Z"/><path class="a" d="M153.24,42.27a1.52,1.52,0,1,0-1.51,1.52,1.52,1.52,0,0,0,1.51-1.52Z"/><path class="a" d="M153.24,32.08a1.52,1.52,0,1,0-1.51,1.52A1.52,1.52,0,0,0,153.24,32.08Z"/><path class="a" d="M153.24,21.89a1.52,1.52,0,1,0-1.51,1.52A1.52,1.52,0,0,0,153.24,21.89Z"/><path class="a" d="M153.24,11.7a1.52,1.52,0,1,0-1.51,1.52,1.52,1.52,0,0,0,1.51-1.52Z"/><path class="a" d="M153.24,1.51A1.52,1.52,0,1,0,151.73,3a1.52,1.52,0,0,0,1.51-1.49Z"/><path class="a" d="M143.23,52.46a1.52,1.52,0,1,0-.438,1.088,1.52,1.52,0,0,0,.438-1.088Z"/><path class="a" d="M143.23,42.27a1.52,1.52,0,1,0-1.52,1.52,1.52,1.52,0,0,0,1.52-1.52Z"/><path class="a" d="M143.23,32.08a1.52,1.52,0,1,0-1.52,1.52A1.52,1.52,0,0,0,143.23,32.08Z"/><path class="a" d="M143.23,21.89a1.52,1.52,0,1,0-1.52,1.52A1.52,1.52,0,0,0,143.23,21.89Z"/><path class="a" d="M143.23,11.7a1.52,1.52,0,1,0-1.52,1.52A1.52,1.52,0,0,0,143.23,11.7Z"/><path class="a" d="M143.23,1.51A1.52,1.52,0,1,0,141.71,3a1.52,1.52,0,0,0,1.52-1.49Z"/><path class="a" d="M133.21,52.46a1.52,1.52,0,1,0-.435,1.084,1.52,1.52,0,0,0,.435-1.084Z"/><path class="a" d="M133.21,42.27a1.52,1.52,0,1,0-1.51,1.52,1.52,1.52,0,0,0,1.51-1.52Z"/><path class="a" d="M133.21,32.08a1.52,1.52,0,1,0-1.51,1.52,1.52,1.52,0,0,0,1.51-1.52Z"/><path class="a" d="M133.21,21.89a1.52,1.52,0,1,0-1.51,1.52,1.52,1.52,0,0,0,1.51-1.52Z"/><path class="a" d="M133.21,11.7a1.52,1.52,0,1,0-1.51,1.52,1.52,1.52,0,0,0,1.51-1.52Z"/><path class="a" d="M133.21,1.51A1.52,1.52,0,1,0,131.7,3a1.52,1.52,0,0,0,1.51-1.49Z"/><path class="a" d="M123.2,52.46a1.52,1.52,0,1,0-.438,1.088,1.52,1.52,0,0,0,.438-1.088Z"/><path class="a" d="M123.2,42.27a1.52,1.52,0,1,0-1.52,1.52,1.52,1.52,0,0,0,1.52-1.52Z"/><path class="a" d="M123.2,32.08a1.52,1.52,0,1,0-1.52,1.52,1.52,1.52,0,0,0,1.52-1.52Z"/><path class="a" d="M123.2,21.89a1.52,1.52,0,1,0-1.52,1.52,1.52,1.52,0,0,0,1.52-1.52Z"/><path class="a" d="M123.2,11.7a1.52,1.52,0,1,0-1.52,1.52,1.52,1.52,0,0,0,1.52-1.52Z"/><path class="a" d="M123.2,1.51A1.52,1.52,0,1,0,121.68,3a1.52,1.52,0,0,0,1.52-1.49Z"/><path class="a" d="M113.18,52.46a1.52,1.52,0,1,0-.435,1.084,1.52,1.52,0,0,0,.435-1.084Z"/><path class="a" d="M113.18,42.27a1.52,1.52,0,1,0-1.51,1.52,1.52,1.52,0,0,0,1.51-1.52Z"/><path class="a" d="M113.18,32.08a1.52,1.52,0,1,0-1.51,1.52,1.52,1.52,0,0,0,1.51-1.52Z"/><path class="a" d="M113.18,21.89a1.52,1.52,0,1,0-1.51,1.52,1.52,1.52,0,0,0,1.51-1.52Z"/><path class="a" d="M113.18,11.7a1.52,1.52,0,1,0-1.51,1.52,1.52,1.52,0,0,0,1.51-1.52Z"/><path class="a" d="M113.18,1.51A1.52,1.52,0,1,0,111.67,3a1.52,1.52,0,0,0,1.51-1.49Z"/><path class="a" d="M103.17,52.46a1.52,1.52,0,1,0-.438,1.088,1.52,1.52,0,0,0,.438-1.088Z"/><path class="a" d="M103.17,42.27a1.52,1.52,0,1,0-1.52,1.52,1.52,1.52,0,0,0,1.52-1.52Z"/><path class="a" d="M103.17,32.08a1.52,1.52,0,1,0-1.52,1.52A1.52,1.52,0,0,0,103.17,32.08Z"/><path class="a" d="M103.17,21.89a1.52,1.52,0,1,0-1.52,1.52A1.52,1.52,0,0,0,103.17,21.89Z"/><path class="a" d="M103.17,11.7a1.52,1.52,0,1,0-1.52,1.52A1.52,1.52,0,0,0,103.17,11.7Z"/><path class="a" d="M103.17,1.51A1.52,1.52,0,1,0,101.65,3a1.52,1.52,0,0,0,1.52-1.49Z"/><path class="a" d="M93.16,52.46a1.52,1.52,0,1,0-.438,1.088,1.52,1.52,0,0,0,.438-1.088Z"/><path class="a" d="M93.16,42.27a1.52,1.52,0,1,0-1.52,1.52,1.52,1.52,0,0,0,1.52-1.52Z"/><path class="a" d="M93.16,32.08a1.52,1.52,0,1,0-1.52,1.52,1.52,1.52,0,0,0,1.52-1.52Z"/><path class="a" d="M93.16,21.89a1.52,1.52,0,1,0-1.52,1.52,1.52,1.52,0,0,0,1.52-1.52Z"/><path class="a" d="M93.16,11.7a1.52,1.52,0,1,0-1.52,1.52,1.52,1.52,0,0,0,1.52-1.52Z"/><path class="a" d="M93.16,1.51A1.52,1.52,0,1,0,91.64,3a1.52,1.52,0,0,0,1.52-1.49Z"/><path class="a" d="M83.14,52.46a1.52,1.52,0,1,0-.435,1.084,1.52,1.52,0,0,0,.435-1.084Z"/><path class="a" d="M83.14,42.27a1.52,1.52,0,1,0-1.51,1.52,1.52,1.52,0,0,0,1.51-1.52Z"/><path class="a" d="M83.14,32.08a1.52,1.52,0,1,0-1.51,1.52A1.52,1.52,0,0,0,83.14,32.08Z"/><path class="a" d="M83.14,21.89a1.52,1.52,0,1,0-1.51,1.52A1.52,1.52,0,0,0,83.14,21.89Z"/><path class="a" d="M83.14,11.7a1.52,1.52,0,1,0-1.51,1.52,1.52,1.52,0,0,0,1.51-1.52Z"/><path class="a" d="M83.14,1.51A1.52,1.52,0,1,0,81.63,3a1.52,1.52,0,0,0,1.51-1.49Z"/><path class="a" d="M73.13,52.46a1.52,1.52,0,1,0-.438,1.088,1.52,1.52,0,0,0,.438-1.088Z"/><path class="a" d="M73.13,42.27a1.52,1.52,0,1,0-1.52,1.52,1.52,1.52,0,0,0,1.52-1.52Z"/><path class="a" d="M73.13,32.08a1.52,1.52,0,1,0-1.52,1.52,1.52,1.52,0,0,0,1.52-1.52Z"/><path class="a" d="M73.13,21.89a1.52,1.52,0,1,0-1.52,1.52,1.52,1.52,0,0,0,1.52-1.52Z"/><path class="a" d="M73.13,11.7a1.52,1.52,0,1,0-1.52,1.52,1.52,1.52,0,0,0,1.52-1.52Z"/><path class="a" d="M73.13,1.51A1.52,1.52,0,1,0,71.61,3a1.52,1.52,0,0,0,1.52-1.49Z"/><path class="a" d="M63.11,52.46a1.52,1.52,0,1,0-.435,1.084,1.52,1.52,0,0,0,.435-1.084Z"/><path class="a" d="M63.11,42.27a1.52,1.52,0,1,0-1.51,1.52,1.52,1.52,0,0,0,1.51-1.52Z"/><path class="a" d="M63.11,32.08A1.52,1.52,0,1,0,61.6,33.6,1.52,1.52,0,0,0,63.11,32.08Z"/><path class="a" d="M63.11,21.89a1.52,1.52,0,1,0-1.51,1.52A1.52,1.52,0,0,0,63.11,21.89Z"/><path class="a" d="M63.11,11.7a1.52,1.52,0,1,0-1.51,1.52,1.52,1.52,0,0,0,1.51-1.52Z"/><path class="a" d="M63.11,1.51A1.52,1.52,0,1,0,61.6,3a1.52,1.52,0,0,0,1.51-1.49Z"/><path class="a" d="M53.1,52.46a1.52,1.52,0,1,0-.438,1.088A1.52,1.52,0,0,0,53.1,52.46Z"/><path class="a" d="M53.1,42.27a1.52,1.52,0,1,0-1.52,1.52,1.52,1.52,0,0,0,1.52-1.52Z"/><path class="a" d="M53.1,32.08a1.52,1.52,0,1,0-1.52,1.52,1.52,1.52,0,0,0,1.52-1.52Z"/><path class="a" d="M53.1,21.89a1.52,1.52,0,1,0-1.52,1.52,1.52,1.52,0,0,0,1.52-1.52Z"/><path class="a" d="M53.1,11.7a1.52,1.52,0,1,0-1.52,1.52A1.52,1.52,0,0,0,53.1,11.7Z"/><path class="a" d="M53.1,1.51A1.52,1.52,0,1,0,51.58,3,1.52,1.52,0,0,0,53.1,1.51Z"/><path class="a" d="M43.08,52.46a1.51,1.51,0,1,0-.431,1.087,1.51,1.51,0,0,0,.431-1.087Z"/><path class="a" d="M43.08,42.27a1.51,1.51,0,1,0-.439,1.074A1.51,1.51,0,0,0,43.08,42.27Z"/><path class="a" d="M43.08,32.08a1.51,1.51,0,1,0-.439,1.074A1.51,1.51,0,0,0,43.08,32.08Z"/><path class="a" d="M43.08,21.89a1.51,1.51,0,1,0-.439,1.074A1.51,1.51,0,0,0,43.08,21.89Z"/><path class="a" d="M43.08,11.7a1.51,1.51,0,1,0-.439,1.074A1.51,1.51,0,0,0,43.08,11.7Z"/><path class="a" d="M43.08,1.51A1.51,1.51,0,1,0,41.57,3a1.51,1.51,0,0,0,1.51-1.49Z"/><path class="a" d="M33.07,52.46a1.52,1.52,0,1,0-.435,1.084,1.52,1.52,0,0,0,.435-1.084Z"/><path class="a" d="M33.07,42.27a1.52,1.52,0,1,0-1.51,1.52,1.52,1.52,0,0,0,1.51-1.52Z"/><path class="a" d="M33.07,32.08a1.52,1.52,0,1,0-1.51,1.52A1.52,1.52,0,0,0,33.07,32.08Z"/><path class="a" d="M33.07,21.89a1.52,1.52,0,1,0-1.51,1.52A1.52,1.52,0,0,0,33.07,21.89Z"/><path class="a" d="M33.07,11.7a1.52,1.52,0,1,0-1.51,1.52,1.52,1.52,0,0,0,1.51-1.52Z"/><path class="a" d="M33.07,1.51A1.52,1.52,0,1,0,31.56,3a1.52,1.52,0,0,0,1.51-1.49Z"/><path class="a" d="M23.06,52.46a1.52,1.52,0,1,0-.438,1.088A1.52,1.52,0,0,0,23.06,52.46Z"/><path class="a" d="M23.06,42.27a1.52,1.52,0,1,0-1.52,1.52,1.52,1.52,0,0,0,1.52-1.52Z"/><path class="a" d="M23.06,32.08a1.52,1.52,0,1,0-1.52,1.52A1.52,1.52,0,0,0,23.06,32.08Z"/><path class="a" d="M23.06,21.89a1.52,1.52,0,1,0-1.52,1.52A1.52,1.52,0,0,0,23.06,21.89Z"/><path class="a" d="M23.06,11.7a1.52,1.52,0,1,0-1.52,1.52A1.52,1.52,0,0,0,23.06,11.7Z"/><path class="a" d="M23.06,1.51A1.52,1.52,0,1,0,21.54,3a1.52,1.52,0,0,0,1.52-1.49Z"/><path class="a" d="M13,52.46A1.52,1.52,0,1,0,11.53,54,1.52,1.52,0,0,0,13,52.46Z"/><path class="a" d="M13,42.27a1.52,1.52,0,1,0-1.51,1.52A1.52,1.52,0,0,0,13,42.27Z"/><path class="a" d="M13,32.08a1.52,1.52,0,1,0-1.51,1.52A1.52,1.52,0,0,0,13,32.08Z"/><path class="a" d="M13,21.89a1.52,1.52,0,1,0-1.51,1.52A1.52,1.52,0,0,0,13,21.89Z"/><path class="a" d="M13,11.7a1.52,1.52,0,1,0-1.51,1.52A1.52,1.52,0,0,0,13,11.7Z"/><path class="a" d="M13,1.51A1.52,1.52,0,1,0,11.53,3,1.52,1.52,0,0,0,13,1.51Z"/><path class="a" d="M3,52.46A1.52,1.52,0,1,0,1.51,54,1.52,1.52,0,0,0,3,52.46Z"/><path class="a" d="M3,42.27a1.52,1.52,0,1,0-1.52,1.52A1.52,1.52,0,0,0,3,42.27Z"/><path class="a" d="M3,32.08A1.52,1.52,0,1,0,1.51,33.6,1.52,1.52,0,0,0,3,32.08Z"/><path class="a" d="M3,21.89a1.52,1.52,0,1,0-1.52,1.52A1.52,1.52,0,0,0,3,21.89Z"/><path class="a" d="M3,11.7a1.52,1.52,0,1,0-1.52,1.52A1.52,1.52,0,0,0,3,11.7Z"/><path class="a" d="M3,1.51A1.52,1.52,0,1,0,1.51,3,1.52,1.52,0,0,0,3,1.51Z"/><path class="a" d="M353.52,52.46a1.52,1.52,0,1,0-.438,1.088,1.52,1.52,0,0,0,.438-1.088Z"/><path class="a" d="M353.52,42.27A1.52,1.52,0,1,0,352,43.79a1.52,1.52,0,0,0,1.52-1.52Z"/><path class="a" d="M353.52,32.08A1.52,1.52,0,1,0,352,33.6,1.52,1.52,0,0,0,353.52,32.08Z"/><path class="a" d="M353.52,21.89A1.52,1.52,0,1,0,352,23.41,1.52,1.52,0,0,0,353.52,21.89Z"/><path class="a" d="M353.52,11.7A1.52,1.52,0,1,0,352,13.22,1.52,1.52,0,0,0,353.52,11.7Z"/><path class="a" d="M353.52,1.51A1.52,1.52,0,1,0,352,3a1.52,1.52,0,0,0,1.52-1.49Z"/><path class="a" d="M343.51,52.46a1.52,1.52,0,1,0-.435,1.084,1.52,1.52,0,0,0,.435-1.084Z"/><path class="a" d="M343.51,42.27A1.52,1.52,0,1,0,342,43.79a1.52,1.52,0,0,0,1.51-1.52Z"/><path class="a" d="M343.51,32.08A1.52,1.52,0,1,0,342,33.6a1.52,1.52,0,0,0,1.51-1.52Z"/><path class="a" d="M343.51,21.89A1.52,1.52,0,1,0,342,23.41a1.52,1.52,0,0,0,1.51-1.52Z"/><path class="a" d="M343.51,11.7A1.52,1.52,0,1,0,342,13.22a1.52,1.52,0,0,0,1.51-1.52Z"/><path class="a" d="M343.51,1.51A1.52,1.52,0,1,0,342,3a1.52,1.52,0,0,0,1.51-1.49Z"/><path class="a" d="M333.49,52.46A1.52,1.52,0,1,0,332,54,1.52,1.52,0,0,0,333.49,52.46Z"/><path class="a" d="M333.49,42.27A1.52,1.52,0,1,0,332,43.79a1.52,1.52,0,0,0,1.49-1.52Z"/><path class="a" d="M333.49,32.08A1.52,1.52,0,1,0,332,33.6a1.52,1.52,0,0,0,1.49-1.52Z"/><path class="a" d="M333.49,21.89A1.52,1.52,0,1,0,332,23.41a1.52,1.52,0,0,0,1.49-1.52Z"/><path class="a" d="M333.49,11.7A1.52,1.52,0,1,0,332,13.22a1.52,1.52,0,0,0,1.49-1.52Z"/><path class="a" d="M333.49,1.51A1.52,1.52,0,1,0,332,3,1.52,1.52,0,0,0,333.49,1.51Z"/><path class="a" d="M323.48,52.46A1.52,1.52,0,1,0,322,54a1.52,1.52,0,0,0,1.48-1.54Z"/><path class="a" d="M323.48,42.27A1.52,1.52,0,1,0,322,43.79a1.52,1.52,0,0,0,1.48-1.52Z"/><path class="a" d="M323.48,32.08A1.52,1.52,0,1,0,322,33.6a1.52,1.52,0,0,0,1.48-1.52Z"/><path class="a" d="M323.48,21.89A1.52,1.52,0,1,0,322,23.41,1.52,1.52,0,0,0,323.48,21.89Z"/><path class="a" d="M323.48,11.7A1.52,1.52,0,1,0,322,13.22a1.52,1.52,0,0,0,1.48-1.52Z"/><path class="a" d="M323.48,1.51A1.52,1.52,0,1,0,322,3a1.52,1.52,0,0,0,1.48-1.49Z"/><path class="a" d="M313.46,52.46A1.51,1.51,0,1,0,312,54,1.51,1.51,0,0,0,313.46,52.46Z"/><path class="a" d="M313.46,42.27A1.51,1.51,0,1,0,312,43.79,1.51,1.51,0,0,0,313.46,42.27Z"/><path class="a" d="M313.46,32.08A1.51,1.51,0,1,0,312,33.6a1.51,1.51,0,0,0,1.46-1.52Z"/><path class="a" d="M313.46,21.89A1.51,1.51,0,1,0,312,23.41a1.51,1.51,0,0,0,1.46-1.52Z"/><path class="a" d="M313.46,11.7A1.51,1.51,0,1,0,312,13.22,1.51,1.51,0,0,0,313.46,11.7Z"/><path class="a" d="M313.46,1.51A1.51,1.51,0,1,0,312,3a1.51,1.51,0,0,0,1.46-1.49Z"/><path class="a" d="M303.45,52.46a1.52,1.52,0,1,0-.435,1.084,1.52,1.52,0,0,0,.435-1.084Z"/><path class="a" d="M303.45,42.27a1.52,1.52,0,1,0-1.51,1.52,1.52,1.52,0,0,0,1.51-1.52Z"/><path class="a" d="M303.45,32.08a1.52,1.52,0,1,0-1.51,1.52A1.52,1.52,0,0,0,303.45,32.08Z"/><path class="a" d="M303.45,21.89a1.52,1.52,0,1,0-1.51,1.52A1.52,1.52,0,0,0,303.45,21.89Z"/><path class="a" d="M303.45,11.7a1.52,1.52,0,1,0-1.51,1.52,1.52,1.52,0,0,0,1.51-1.52Z"/><path class="a" d="M303.45,1.51A1.52,1.52,0,1,0,301.94,3a1.52,1.52,0,0,0,1.51-1.49Z"/><path class="a" d="M293.44,52.46A1.52,1.52,0,1,0,293,53.548a1.52,1.52,0,0,0,.438-1.088Z"/><path class="a" d="M293.44,42.27a1.52,1.52,0,1,0-1.52,1.52,1.52,1.52,0,0,0,1.52-1.52Z"/><path class="a" d="M293.44,32.08a1.52,1.52,0,1,0-1.52,1.52A1.52,1.52,0,0,0,293.44,32.08Z"/><path class="a" d="M293.44,21.89a1.52,1.52,0,1,0-1.52,1.52A1.52,1.52,0,0,0,293.44,21.89Z"/><path class="a" d="M293.44,11.7a1.52,1.52,0,1,0-1.52,1.52A1.52,1.52,0,0,0,293.44,11.7Z"/><path class="a" d="M293.44,1.51A1.52,1.52,0,1,0,291.92,3a1.52,1.52,0,0,0,1.52-1.49Z"/><path class="a" d="M283.42,52.46a1.52,1.52,0,1,0-.435,1.084,1.52,1.52,0,0,0,.435-1.084Z"/><path class="a" d="M283.42,42.27a1.52,1.52,0,1,0-1.51,1.52,1.52,1.52,0,0,0,1.51-1.52Z"/><path class="a" d="M283.42,32.08a1.52,1.52,0,1,0-1.51,1.52A1.52,1.52,0,0,0,283.42,32.08Z"/><path class="a" d="M283.42,21.89a1.52,1.52,0,1,0-1.51,1.52A1.52,1.52,0,0,0,283.42,21.89Z"/><path class="a" d="M283.42,11.7a1.52,1.52,0,1,0-1.51,1.52,1.52,1.52,0,0,0,1.51-1.52Z"/><path class="a" d="M283.42,1.51A1.52,1.52,0,1,0,281.91,3a1.52,1.52,0,0,0,1.51-1.49Z"/><path class="a" d="M273.41,52.46a1.52,1.52,0,1,0-.438,1.088,1.52,1.52,0,0,0,.438-1.088Z"/><path class="a" d="M273.41,42.27a1.52,1.52,0,1,0-1.52,1.52,1.52,1.52,0,0,0,1.52-1.52Z"/><path class="a" d="M273.41,32.08a1.52,1.52,0,1,0-1.52,1.52,1.52,1.52,0,0,0,1.52-1.52Z"/><path class="a" d="M273.41,21.89a1.52,1.52,0,1,0-1.52,1.52,1.52,1.52,0,0,0,1.52-1.52Z"/><path class="a" d="M273.41,11.7a1.52,1.52,0,1,0-1.52,1.52,1.52,1.52,0,0,0,1.52-1.52Z"/><path class="a" d="M273.41,1.51A1.52,1.52,0,1,0,271.89,3a1.52,1.52,0,0,0,1.52-1.49Z"/><path class="a" d="M263.39,52.46a1.51,1.51,0,1,0-.431,1.087A1.51,1.51,0,0,0,263.39,52.46Z"/><path class="a" d="M263.39,42.27a1.51,1.51,0,1,0-.439,1.074A1.51,1.51,0,0,0,263.39,42.27Z"/><path class="a" d="M263.39,32.08a1.51,1.51,0,1,0-.439,1.074A1.51,1.51,0,0,0,263.39,32.08Z"/><path class="a" d="M263.39,21.89a1.51,1.51,0,1,0-.439,1.074A1.51,1.51,0,0,0,263.39,21.89Z"/><path class="a" d="M263.39,11.7a1.51,1.51,0,1,0-.439,1.074A1.51,1.51,0,0,0,263.39,11.7Z"/><path class="a" d="M263.39,1.51A1.51,1.51,0,1,0,261.88,3a1.51,1.51,0,0,0,1.51-1.49Z"/><path class="a" d="M253.38,52.46a1.52,1.52,0,1,0-.435,1.084,1.52,1.52,0,0,0,.435-1.084Z"/><path class="a" d="M253.38,42.27a1.52,1.52,0,1,0-1.51,1.52,1.52,1.52,0,0,0,1.51-1.52Z"/><path class="a" d="M253.38,32.08a1.52,1.52,0,1,0-1.51,1.52,1.52,1.52,0,0,0,1.51-1.52Z"/><path class="a" d="M253.38,21.89a1.52,1.52,0,1,0-1.51,1.52,1.52,1.52,0,0,0,1.51-1.52Z"/><path class="a" d="M253.38,11.7a1.52,1.52,0,1,0-1.51,1.52,1.52,1.52,0,0,0,1.51-1.52Z"/><path class="a" d="M253.38,1.51A1.52,1.52,0,1,0,251.87,3a1.52,1.52,0,0,0,1.51-1.49Z"/><path class="a" d="M243.37,52.46a1.52,1.52,0,1,0-.438,1.088,1.52,1.52,0,0,0,.438-1.088Z"/><path class="a" d="M243.37,42.27a1.52,1.52,0,1,0-1.52,1.52,1.52,1.52,0,0,0,1.52-1.52Z"/><path class="a" d="M243.37,32.08a1.52,1.52,0,1,0-1.52,1.52,1.52,1.52,0,0,0,1.52-1.52Z"/><path class="a" d="M243.37,21.89a1.52,1.52,0,1,0-1.52,1.52,1.52,1.52,0,0,0,1.52-1.52Z"/><path class="a" d="M243.37,11.7a1.52,1.52,0,1,0-1.52,1.52,1.52,1.52,0,0,0,1.52-1.52Z"/><path class="a" d="M243.37,1.51A1.52,1.52,0,1,0,241.85,3a1.52,1.52,0,0,0,1.52-1.49Z"/><path class="a" d="M233.35,52.46a1.52,1.52,0,1,0-.435,1.084,1.52,1.52,0,0,0,.435-1.084Z"/><path class="a" d="M233.35,42.27a1.52,1.52,0,1,0-1.51,1.52,1.52,1.52,0,0,0,1.51-1.52Z"/><path class="a" d="M233.35,32.08a1.52,1.52,0,1,0-1.51,1.52A1.52,1.52,0,0,0,233.35,32.08Z"/><path class="a" d="M233.35,21.89a1.52,1.52,0,1,0-1.51,1.52A1.52,1.52,0,0,0,233.35,21.89Z"/><path class="a" d="M233.35,11.7a1.52,1.52,0,1,0-1.51,1.52,1.52,1.52,0,0,0,1.51-1.52Z"/><path class="a" d="M233.35,1.51A1.52,1.52,0,1,0,231.84,3a1.52,1.52,0,0,0,1.51-1.49Z"/><path class="a" d="M223.34,52.46a1.52,1.52,0,1,0-.438,1.088,1.52,1.52,0,0,0,.438-1.088Z"/><path class="a" d="M223.34,42.27a1.52,1.52,0,1,0-1.52,1.52,1.52,1.52,0,0,0,1.52-1.52Z"/><path class="a" d="M223.34,32.08a1.52,1.52,0,1,0-1.52,1.52A1.52,1.52,0,0,0,223.34,32.08Z"/><path class="a" d="M223.34,21.89a1.52,1.52,0,1,0-1.52,1.52A1.52,1.52,0,0,0,223.34,21.89Z"/><path class="a" d="M223.34,11.7a1.52,1.52,0,1,0-1.52,1.52A1.52,1.52,0,0,0,223.34,11.7Z"/><path class="a" d="M223.34,1.51A1.52,1.52,0,1,0,221.82,3a1.52,1.52,0,0,0,1.52-1.49Z"/><path class="a" d="M213.32,52.46a1.51,1.51,0,1,0-.431,1.087,1.52,1.52,0,0,0,.431-1.087Z"/><path class="a" d="M213.32,42.27a1.51,1.51,0,1,0-.439,1.074,1.52,1.52,0,0,0,.439-1.074Z"/><path class="a" d="M213.32,32.08a1.51,1.51,0,1,0-.439,1.074,1.52,1.52,0,0,0,.439-1.074Z"/><path class="a" d="M213.32,21.89a1.51,1.51,0,1,0-.439,1.074,1.52,1.52,0,0,0,.439-1.074Z"/><path class="a" d="M213.32,11.7a1.51,1.51,0,1,0-.439,1.074,1.52,1.52,0,0,0,.439-1.074Z"/><path class="a" d="M213.32,1.51A1.52,1.52,0,1,0,211.81,3a1.52,1.52,0,0,0,1.51-1.49Z"/><path class="a" d="M203.31,52.46a1.52,1.52,0,1,0-.435,1.084,1.52,1.52,0,0,0,.435-1.084Z"/><path class="a" d="M203.31,42.27a1.52,1.52,0,1,0-1.51,1.52,1.52,1.52,0,0,0,1.51-1.52Z"/><path class="a" d="M203.31,32.08a1.52,1.52,0,1,0-1.51,1.52,1.52,1.52,0,0,0,1.51-1.52Z"/><path class="a" d="M203.31,21.89a1.52,1.52,0,1,0-1.51,1.52,1.52,1.52,0,0,0,1.51-1.52Z"/><path class="a" d="M203.31,11.7a1.52,1.52,0,1,0-1.51,1.52,1.52,1.52,0,0,0,1.51-1.52Z"/><path class="a" d="M203.31,1.51A1.52,1.52,0,1,0,201.8,3a1.52,1.52,0,0,0,1.51-1.49Z"/><path class="a" d="M193.3,52.46a1.52,1.52,0,1,0-.438,1.088,1.52,1.52,0,0,0,.438-1.088Z"/><path class="a" d="M193.3,42.27a1.52,1.52,0,1,0-1.52,1.52,1.52,1.52,0,0,0,1.52-1.52Z"/><path class="a" d="M193.3,32.08a1.52,1.52,0,1,0-1.52,1.52A1.52,1.52,0,0,0,193.3,32.08Z"/><path class="a" d="M193.3,21.89a1.52,1.52,0,1,0-1.52,1.52A1.52,1.52,0,0,0,193.3,21.89Z"/><path class="a" d="M193.3,11.7a1.52,1.52,0,1,0-1.52,1.52A1.52,1.52,0,0,0,193.3,11.7Z"/><path class="a" d="M193.3,1.51A1.52,1.52,0,1,0,191.78,3a1.52,1.52,0,0,0,1.52-1.49Z"/><path class="a" d="M183.28,52.46a1.52,1.52,0,1,0-.435,1.084,1.52,1.52,0,0,0,.435-1.084Z"/><path class="a" d="M183.28,42.27a1.52,1.52,0,1,0-1.51,1.52,1.52,1.52,0,0,0,1.51-1.52Z"/><path class="a" d="M183.28,32.08a1.52,1.52,0,1,0-1.51,1.52A1.52,1.52,0,0,0,183.28,32.08Z"/><path class="a" d="M183.28,21.89a1.52,1.52,0,1,0-1.51,1.52A1.52,1.52,0,0,0,183.28,21.89Z"/><path class="a" d="M183.28,11.7a1.52,1.52,0,1,0-1.51,1.52,1.52,1.52,0,0,0,1.51-1.52Z"/><path class="a" d="M183.28,1.51A1.52,1.52,0,1,0,181.77,3a1.52,1.52,0,0,0,1.51-1.49Z"/><path class="a" d="M533.77,52.46a1.51,1.51,0,1,0-.431,1.087A1.52,1.52,0,0,0,533.77,52.46Z"/><path class="a" d="M533.77,42.27a1.51,1.51,0,1,0-.439,1.074A1.52,1.52,0,0,0,533.77,42.27Z"/><path class="a" d="M533.77,32.08a1.51,1.51,0,1,0-.439,1.074A1.52,1.52,0,0,0,533.77,32.08Z"/><path class="a" d="M533.77,21.89a1.51,1.51,0,1,0-.439,1.074A1.52,1.52,0,0,0,533.77,21.89Z"/><path class="a" d="M533.77,11.7a1.51,1.51,0,1,0-.439,1.074A1.52,1.52,0,0,0,533.77,11.7Z"/><path class="a" d="M533.77,1.51A1.52,1.52,0,1,0,532.26,3a1.52,1.52,0,0,0,1.51-1.49Z"/><path class="a" d="M523.76,52.46a1.52,1.52,0,1,0-.435,1.084A1.52,1.52,0,0,0,523.76,52.46Z"/><path class="a" d="M523.76,42.27a1.52,1.52,0,1,0-1.51,1.52,1.52,1.52,0,0,0,1.51-1.52Z"/><path class="a" d="M523.76,32.08a1.52,1.52,0,1,0-1.51,1.52A1.52,1.52,0,0,0,523.76,32.08Z"/><path class="a" d="M523.76,21.89a1.52,1.52,0,1,0-1.51,1.52A1.52,1.52,0,0,0,523.76,21.89Z"/><path class="a" d="M523.76,11.7a1.52,1.52,0,1,0-1.51,1.52A1.52,1.52,0,0,0,523.76,11.7Z"/><path class="a" d="M523.76,1.51A1.52,1.52,0,1,0,522.25,3a1.52,1.52,0,0,0,1.51-1.49Z"/><path class="a" d="M513.75,52.46a1.52,1.52,0,1,0-.438,1.088,1.52,1.52,0,0,0,.438-1.088Z"/><path class="a" d="M513.75,42.27a1.52,1.52,0,1,0-1.52,1.52,1.52,1.52,0,0,0,1.52-1.52Z"/><path class="a" d="M513.75,32.08a1.52,1.52,0,1,0-1.52,1.52A1.52,1.52,0,0,0,513.75,32.08Z"/><path class="a" d="M513.75,21.89a1.52,1.52,0,1,0-1.52,1.52A1.52,1.52,0,0,0,513.75,21.89Z"/><path class="a" d="M513.75,11.7a1.52,1.52,0,1,0-1.52,1.52A1.52,1.52,0,0,0,513.75,11.7Z"/><path class="a" d="M513.75,1.51A1.52,1.52,0,1,0,512.23,3a1.52,1.52,0,0,0,1.52-1.49Z"/><path class="a" d="M503.73,52.46a1.52,1.52,0,1,0-.435,1.084,1.52,1.52,0,0,0,.435-1.084Z"/><path class="a" d="M503.73,42.27a1.52,1.52,0,1,0-1.51,1.52,1.52,1.52,0,0,0,1.51-1.52Z"/><path class="a" d="M503.73,32.08a1.52,1.52,0,1,0-1.51,1.52,1.52,1.52,0,0,0,1.51-1.52Z"/><path class="a" d="M503.73,21.89a1.52,1.52,0,1,0-1.51,1.52,1.52,1.52,0,0,0,1.51-1.52Z"/><path class="a" d="M503.73,11.7a1.52,1.52,0,1,0-1.51,1.52,1.52,1.52,0,0,0,1.51-1.52Z"/><path class="a" d="M503.73,1.51A1.52,1.52,0,1,0,502.22,3a1.52,1.52,0,0,0,1.51-1.49Z"/><path class="a" d="M493.72,52.46a1.52,1.52,0,1,0-.438,1.088,1.52,1.52,0,0,0,.438-1.088Z"/><path class="a" d="M493.72,42.27a1.52,1.52,0,1,0-1.52,1.52,1.52,1.52,0,0,0,1.52-1.52Z"/><path class="a" d="M493.72,32.08a1.52,1.52,0,1,0-1.52,1.52A1.52,1.52,0,0,0,493.72,32.08Z"/><path class="a" d="M493.72,21.89a1.52,1.52,0,1,0-1.52,1.52A1.52,1.52,0,0,0,493.72,21.89Z"/><path class="a" d="M493.72,11.7a1.52,1.52,0,1,0-1.52,1.52A1.52,1.52,0,0,0,493.72,11.7Z"/><path class="a" d="M493.72,1.51A1.52,1.52,0,1,0,492.2,3a1.52,1.52,0,0,0,1.52-1.49Z"/><path class="a" d="M483.7,52.46a1.51,1.51,0,1,0-.431,1.087A1.52,1.52,0,0,0,483.7,52.46Z"/><path class="a" d="M483.7,42.27a1.51,1.51,0,1,0-.439,1.074A1.52,1.52,0,0,0,483.7,42.27Z"/><path class="a" d="M483.7,32.08a1.51,1.51,0,1,0-.439,1.074,1.52,1.52,0,0,0,.439-1.074Z"/><path class="a" d="M483.7,21.89a1.51,1.51,0,1,0-.439,1.074A1.52,1.52,0,0,0,483.7,21.89Z"/><path class="a" d="M483.7,11.7a1.51,1.51,0,1,0-.439,1.074A1.52,1.52,0,0,0,483.7,11.7Z"/><path class="a" d="M483.7,1.51A1.52,1.52,0,1,0,482.19,3a1.52,1.52,0,0,0,1.51-1.49Z"/><path class="a" d="M473.69,52.46a1.52,1.52,0,1,0-.438,1.088,1.52,1.52,0,0,0,.438-1.088Z"/><path class="a" d="M473.69,42.27a1.52,1.52,0,1,0-1.52,1.52,1.52,1.52,0,0,0,1.52-1.52Z"/><path class="a" d="M473.69,32.08a1.52,1.52,0,1,0-1.52,1.52,1.52,1.52,0,0,0,1.52-1.52Z"/><path class="a" d="M473.69,21.89a1.52,1.52,0,1,0-1.52,1.52,1.52,1.52,0,0,0,1.52-1.52Z"/><path class="a" d="M473.69,11.7a1.52,1.52,0,1,0-1.52,1.52,1.52,1.52,0,0,0,1.52-1.52Z"/><path class="a" d="M473.69,1.51A1.52,1.52,0,1,0,472.17,3a1.52,1.52,0,0,0,1.52-1.49Z"/><path class="a" d="M463.68,52.46a1.52,1.52,0,1,0-.438,1.088,1.52,1.52,0,0,0,.438-1.088Z"/><path class="a" d="M463.68,42.27a1.52,1.52,0,1,0-1.52,1.52,1.52,1.52,0,0,0,1.52-1.52Z"/><path class="a" d="M463.68,32.08a1.52,1.52,0,1,0-1.52,1.52,1.52,1.52,0,0,0,1.52-1.52Z"/><path class="a" d="M463.68,21.89a1.52,1.52,0,1,0-1.52,1.52,1.52,1.52,0,0,0,1.52-1.52Z"/><path class="a" d="M463.68,11.7a1.52,1.52,0,1,0-1.52,1.52,1.52,1.52,0,0,0,1.52-1.52Z"/><path class="a" d="M463.68,1.51A1.52,1.52,0,1,0,462.16,3a1.52,1.52,0,0,0,1.52-1.49Z"/><path class="a" d="M453.66,52.46a1.52,1.52,0,1,0-.435,1.084,1.52,1.52,0,0,0,.435-1.084Z"/><path class="a" d="M453.66,42.27a1.52,1.52,0,1,0-1.51,1.52,1.52,1.52,0,0,0,1.51-1.52Z"/><path class="a" d="M453.66,32.08a1.52,1.52,0,1,0-1.51,1.52,1.52,1.52,0,0,0,1.51-1.52Z"/><path class="a" d="M453.66,21.89a1.52,1.52,0,1,0-1.51,1.52,1.52,1.52,0,0,0,1.51-1.52Z"/><path class="a" d="M453.66,11.7a1.52,1.52,0,1,0-1.51,1.52,1.52,1.52,0,0,0,1.51-1.52Z"/><path class="a" d="M453.66,1.51A1.52,1.52,0,1,0,452.15,3a1.52,1.52,0,0,0,1.51-1.49Z"/><path class="a" d="M443.65,52.46a1.52,1.52,0,1,0-.438,1.088,1.52,1.52,0,0,0,.438-1.088Z"/><path class="a" d="M443.65,42.27a1.52,1.52,0,1,0-1.52,1.52,1.52,1.52,0,0,0,1.52-1.52Z"/><path class="a" d="M443.65,32.08a1.52,1.52,0,1,0-1.52,1.52A1.52,1.52,0,0,0,443.65,32.08Z"/><path class="a" d="M443.65,21.89a1.52,1.52,0,1,0-1.52,1.52A1.52,1.52,0,0,0,443.65,21.89Z"/><path class="a" d="M443.65,11.7a1.52,1.52,0,1,0-1.52,1.52A1.52,1.52,0,0,0,443.65,11.7Z"/><path class="a" d="M443.65,1.51A1.52,1.52,0,1,0,442.13,3a1.52,1.52,0,0,0,1.52-1.49Z"/><path class="a" d="M433.63,52.46a1.52,1.52,0,1,0-.435,1.084,1.52,1.52,0,0,0,.435-1.084Z"/><path class="a" d="M433.63,42.27a1.52,1.52,0,1,0-1.51,1.52,1.52,1.52,0,0,0,1.51-1.52Z"/><path class="a" d="M433.63,32.08a1.52,1.52,0,1,0-1.51,1.52,1.52,1.52,0,0,0,1.51-1.52Z"/><path class="a" d="M433.63,21.89a1.52,1.52,0,1,0-1.51,1.52,1.52,1.52,0,0,0,1.51-1.52Z"/><path class="a" d="M433.63,11.7a1.52,1.52,0,1,0-1.51,1.52,1.52,1.52,0,0,0,1.51-1.52Z"/><path class="a" d="M433.63,1.51A1.52,1.52,0,1,0,432.12,3a1.52,1.52,0,0,0,1.51-1.49Z"/><path class="a" d="M423.62,52.46a1.52,1.52,0,1,0-.438,1.088,1.52,1.52,0,0,0,.438-1.088Z"/><path class="a" d="M423.62,42.27a1.52,1.52,0,1,0-1.52,1.52,1.52,1.52,0,0,0,1.52-1.52Z"/><path class="a" d="M423.62,32.08a1.52,1.52,0,1,0-1.52,1.52,1.52,1.52,0,0,0,1.52-1.52Z"/><path class="a" d="M423.62,21.89a1.52,1.52,0,1,0-1.52,1.52,1.52,1.52,0,0,0,1.52-1.52Z"/><path class="a" d="M423.62,11.7a1.52,1.52,0,1,0-1.52,1.52,1.52,1.52,0,0,0,1.52-1.52Z"/><path class="a" d="M423.62,1.51A1.52,1.52,0,1,0,422.1,3a1.52,1.52,0,0,0,1.52-1.49Z"/><path class="a" d="M413.6,52.46a1.51,1.51,0,1,0-.431,1.087,1.51,1.51,0,0,0,.431-1.087Z"/><path class="a" d="M413.6,42.27a1.51,1.51,0,1,0-.439,1.074,1.51,1.51,0,0,0,.439-1.074Z"/><path class="a" d="M413.6,32.08a1.51,1.51,0,1,0-.439,1.074,1.51,1.51,0,0,0,.439-1.074Z"/><path class="a" d="M413.6,21.89a1.51,1.51,0,1,0-.439,1.074,1.51,1.51,0,0,0,.439-1.074Z"/><path class="a" d="M413.6,11.7a1.51,1.51,0,1,0-.439,1.074A1.51,1.51,0,0,0,413.6,11.7Z"/><path class="a" d="M413.6,1.51A1.51,1.51,0,1,0,412.09,3a1.51,1.51,0,0,0,1.51-1.49Z"/><path class="a" d="M403.59,52.46a1.52,1.52,0,1,0-.435,1.084,1.52,1.52,0,0,0,.435-1.084Z"/><path class="a" d="M403.59,42.27a1.52,1.52,0,1,0-1.51,1.52,1.52,1.52,0,0,0,1.51-1.52Z"/><path class="a" d="M403.59,32.08a1.52,1.52,0,1,0-1.51,1.52A1.52,1.52,0,0,0,403.59,32.08Z"/><path class="a" d="M403.59,21.89a1.52,1.52,0,1,0-1.51,1.52A1.52,1.52,0,0,0,403.59,21.89Z"/><path class="a" d="M403.59,11.7a1.52,1.52,0,1,0-1.51,1.52A1.52,1.52,0,0,0,403.59,11.7Z"/><path class="a" d="M403.59,1.51A1.52,1.52,0,1,0,402.08,3a1.52,1.52,0,0,0,1.51-1.49Z"/><path class="a" d="M393.58,52.46a1.52,1.52,0,1,0-.438,1.088,1.52,1.52,0,0,0,.438-1.088Z"/><path class="a" d="M393.58,42.27a1.52,1.52,0,1,0-1.52,1.52,1.52,1.52,0,0,0,1.52-1.52Z"/><path class="a" d="M393.58,32.08a1.52,1.52,0,1,0-1.52,1.52A1.52,1.52,0,0,0,393.58,32.08Z"/><path class="a" d="M393.58,21.89a1.52,1.52,0,1,0-1.52,1.52A1.52,1.52,0,0,0,393.58,21.89Z"/><path class="a" d="M393.58,11.7a1.52,1.52,0,1,0-1.52,1.52A1.52,1.52,0,0,0,393.58,11.7Z"/><path class="a" d="M393.58,1.51A1.52,1.52,0,1,0,392.06,3a1.52,1.52,0,0,0,1.52-1.49Z"/><path class="a" d="M383.56,52.46a1.52,1.52,0,1,0-.435,1.084,1.52,1.52,0,0,0,.435-1.084Z"/><path class="a" d="M383.56,42.27a1.52,1.52,0,1,0-1.51,1.52,1.52,1.52,0,0,0,1.51-1.52Z"/><path class="a" d="M383.56,32.08a1.52,1.52,0,1,0-1.51,1.52,1.52,1.52,0,0,0,1.51-1.52Z"/><path class="a" d="M383.56,21.89a1.52,1.52,0,1,0-1.51,1.52,1.52,1.52,0,0,0,1.51-1.52Z"/><path class="a" d="M383.56,11.7a1.52,1.52,0,1,0-1.51,1.52,1.52,1.52,0,0,0,1.51-1.52Z"/><path class="a" d="M383.56,1.51A1.52,1.52,0,1,0,382.05,3,1.52,1.52,0,0,0,383.56,1.51Z"/><path class="a" d="M373.55,52.46a1.52,1.52,0,1,0-.449,1.1,1.52,1.52,0,0,0,.449-1.1Z"/><path class="a" d="M373.55,42.27a1.52,1.52,0,1,0-.456,1.086,1.52,1.52,0,0,0,.456-1.086Z"/><path class="a" d="M373.55,32.08a1.52,1.52,0,1,0-.456,1.086,1.52,1.52,0,0,0,.456-1.086Z"/><path class="a" d="M373.55,21.89a1.52,1.52,0,1,0-.456,1.086,1.52,1.52,0,0,0,.456-1.086Z"/><path class="a" d="M373.55,11.7a1.52,1.52,0,1,0-.456,1.086,1.52,1.52,0,0,0,.456-1.086Z"/><path class="a" d="M373.55,1.51A1.52,1.52,0,1,0,372,3a1.52,1.52,0,0,0,1.55-1.49Z"/><path class="a" d="M363.53,52.46a1.51,1.51,0,1,0-.439,1.094,1.51,1.51,0,0,0,.439-1.094Z"/><path class="a" d="M363.53,42.27a1.51,1.51,0,1,0-.446,1.081A1.51,1.51,0,0,0,363.53,42.27Z"/><path class="a" d="M363.53,32.08a1.51,1.51,0,1,0-.446,1.081,1.51,1.51,0,0,0,.446-1.081Z"/><path class="a" d="M363.53,21.89a1.51,1.51,0,1,0-.446,1.081,1.51,1.51,0,0,0,.446-1.081Z"/><path class="a" d="M363.53,11.7a1.51,1.51,0,1,0-.446,1.081A1.51,1.51,0,0,0,363.53,11.7Z"/><path class="a" d="M363.53,1.51A1.51,1.51,0,1,0,362,3a1.51,1.51,0,0,0,1.53-1.49Z"/></g></svg>