<svg xmlns="http://www.w3.org/2000/svg" viewBox="0 0 130 42"><defs><style>.cls-1{isolation:isolate;}.cls-2{fill:#1a1a1a;}.cls-3,.cls-4{fill:none;}.cls-4{stroke:#1a1a1a;stroke-width:4px;}.cls-5{fill:#e83b7e;}</style></defs><title>logo</title><g id="Layer_2" data-name="Layer 2"><g id="Cover_Letter" data-name="Cover Letter"><g class="cls-1"><g class="cls-1"><path class="cls-2" d="M11.8,9.54h5V31h-5Z"/><path class="cls-2" d="M27.72,31.23c-4.76,0-8.35-3.19-8.35-8.32s3.68-8.33,8.41-8.33,8.41,3.19,8.41,8.33S32.48,31.23,27.72,31.23Zm0-4.29c1.77,0,3.42-1.31,3.42-4s-1.62-4-3.36-4-3.37,1.27-3.37,4S25.92,26.94,27.72,26.94Z"/><path class="cls-2" d="M45.41,31.23c-4.32,0-7.22-2.41-7.45-5.54h4.9a2.27,2.27,0,0,0,2.49,1.89c1.28,0,1.95-.58,1.95-1.31,0-2.61-8.82-.72-8.82-6.67,0-2.76,2.35-5,6.58-5s6.5,2.32,6.82,5.51H47.3a2.14,2.14,0,0,0-2.38-1.82c-1.16,0-1.8.46-1.8,1.24,0,2.58,8.76.76,8.85,6.79C52,29.11,49.47,31.23,45.41,31.23Z"/><path class="cls-2" d="M55.79,18.93h-2V14.81h2V10.87h5v3.94H64v4.12H60.75v6.5c0,1,.41,1.36,1.51,1.36H64V31H61.51c-3.37,0-5.72-1.42-5.72-5.63Z"/><path class="cls-2" d="M67.27,18.93H65.48V14.81h1.79v-.46c0-4.23,2.62-6.32,7.55-6.06v4.2c-1.92-.11-2.58.47-2.58,2.18v.14H74.9v4.12H72.24V31h-5Z"/><path class="cls-2" d="M84.59,31.23c-4.76,0-8.36-3.19-8.36-8.32s3.69-8.33,8.42-8.33,8.41,3.19,8.41,8.33S89.35,31.23,84.59,31.23Zm0-4.29c1.77,0,3.42-1.31,3.42-4s-1.62-4-3.36-4-3.37,1.27-3.37,4S82.79,26.94,84.59,26.94Z"/><path class="cls-2" d="M95.23,10.46a3,3,0,1,1,3,2.67A2.74,2.74,0,0,1,95.23,10.46Zm.46,4.35h5V31h-5Z"/><path class="cls-2" d="M104.25,9.54h5V31h-5Z"/></g></g><rect class="cls-3" width="130" height="42"/><rect class="cls-4" x="2" y="2" width="126" height="38"/><rect class="cls-5" x="114" y="27" width="4" height="4"/></g></g></svg>