<svg xmlns="http://www.w3.org/2000/svg" xmlns:xlink="http://www.w3.org/1999/xlink" viewBox="0 0 30 30" fill="#FFFFFF">
  <path d="M23 3C21.895 3 21 3.895 21 5L21 12C21 13.105 21.895 14 23 14L25 14C26.105 14 27 13.105 27 12L27 5C27 3.895 26.105 3 25 3L23 3 z M 23 5L25 5L25 7L23 7L23 5 z M 5 7C3.895 7 3 7.895 3 9L3 21C3 22.105 3.895 23 5 23L9 23C10.105 23 11 22.105 11 21L11 9C11 7.895 10.105 7 9 7L5 7 z M 19 7 A 1 1 0 0 0 18 8 A 1 1 0 0 0 19 9 A 1 1 0 0 0 20 8 A 1 1 0 0 0 19 7 z M 5 9L9 9L9 11L5 11L5 9 z M 16 10 A 1 1 0 0 0 15 11 A 1 1 0 0 0 16 12 A 1 1 0 0 0 17 11 A 1 1 0 0 0 16 10 z M 24 10C24.552 10 25 10.448 25 11C25 11.552 24.552 12 24 12C23.448 12 23 11.552 23 11C23 10.448 23.448 10 24 10 z M 5 13L9 13L9 15L5 15L5 13 z M 13 13 A 1 1 0 0 0 12 14 A 1 1 0 0 0 13 15 A 1 1 0 0 0 14 14 A 1 1 0 0 0 13 13 z M 16 16 A 1 1 0 0 0 15 17 A 1 1 0 0 0 16 18 A 1 1 0 0 0 17 17 A 1 1 0 0 0 16 16 z M 23 16C21.895 16 21 16.895 21 18L21 25C21 26.105 21.895 27 23 27L25 27C26.105 27 27 26.105 27 25L27 18C27 16.895 26.105 16 25 16L23 16 z M 7 18C7.552 18 8 18.448 8 19C8 19.552 7.552 20 7 20C6.448 20 6 19.552 6 19C6 18.448 6.448 18 7 18 z M 23 18L25 18L25 20L23 20L23 18 z M 19 19 A 1 1 0 0 0 18 20 A 1 1 0 0 0 19 21 A 1 1 0 0 0 20 20 A 1 1 0 0 0 19 19 z M 24 23C24.552 23 25 23.448 25 24C25 24.552 24.552 25 24 25C23.448 25 23 24.552 23 24C23 23.448 23.448 23 24 23 z" fill="#FFFFFF" />
</svg>