<svg xmlns="http://www.w3.org/2000/svg" xmlns:xlink="http://www.w3.org/1999/xlink" viewBox="0 0 30 30" fill="#FFFFFF">
  <path d="M9.6777344 1.515625 A 0.50005 0.50005 0 0 0 9.28125 2.3046875L10.759766 4.4414062C9.3401698 5.5292967 8.3458783 7.145415 8.0800781 9L21.919922 9C21.654122 7.145415 20.65983 5.5292967 19.240234 4.4414062L20.71875 2.3046875 A 0.50005 0.50005 0 0 0 20.306641 1.515625 A 0.50005 0.50005 0 0 0 19.896484 1.7363281L18.40625 3.8925781C17.398252 3.3277312 16.238794 3 15 3C13.761206 3 12.601748 3.3277312 11.59375 3.8925781L10.103516 1.7363281 A 0.50005 0.50005 0 0 0 9.6777344 1.515625 z M 12 5C12.552 5 13 5.448 13 6C13 6.552 12.552 7 12 7C11.448 7 11 6.552 11 6C11 5.448 11.448 5 12 5 z M 18 5C18.552 5 19 5.448 19 6C19 6.552 18.552 7 18 7C17.448 7 17 6.552 17 6C17 5.448 17.448 5 18 5 z M 5 11C4.448 11 4 11.448 4 12L4 20C4 20.552 4.448 21 5 21C5.552 21 6 20.552 6 20L6 12C6 11.448 5.552 11 5 11 z M 8 11L8 21C8 22.105 8.895 23 10 23L10 26.5C10 27.328 10.672 28 11.5 28C12.328 28 13 27.328 13 26.5L13 23L17 23L17 26.5C17 27.328 17.672 28 18.5 28C19.328 28 20 27.328 20 26.5L20 23C21.105 23 22 22.105 22 21L22 11L8 11 z M 25 11C24.448 11 24 11.448 24 12L24 20C24 20.552 24.448 21 25 21C25.552 21 26 20.552 26 20L26 12C26 11.448 25.552 11 25 11 z" fill="#FFFFFF" />
</svg>