<svg xmlns="http://www.w3.org/2000/svg" xmlns:xlink="http://www.w3.org/1999/xlink" viewBox="0 0 30 30" fill="#FFFFFF">
  <path d="M17.613281 5.0273438L17.513672 5.0371094L16.748047 5.5019531L16.662109 6.3945312L17.326172 6.9960938L17.675781 7.0292969L17.777344 7.0214844L18.542969 6.5566406L18.626953 5.6640625L17.964844 5.0625L17.613281 5.0273438 z M 21.126953 6.0605469L20.566406 6.7597656L20.791016 7.6269531L21.066406 7.8476562L21.126953 7.8808594L21.138672 7.859375L21.966797 7.9609375L22.587891 7.3144531L22.439453 6.4296875L22.185547 6.1875L22.158203 6.1699219L22.083984 6.1230469L22.023438 6.0898438L21.126953 6.0605469 z M 13.646484 6.3886719L13.320312 6.5234375L13.236328 6.5761719L12.777344 7.3476562L13.121094 8.1757812L13.988281 8.3964844L14.314453 8.2617188L14.398438 8.2070312L14.857422 7.4375L14.513672 6.609375L13.646484 6.3886719 z M 24.476562 8.9765625L23.617188 9.2265625L23.302734 10.066406L23.402344 10.404297L23.447266 10.494141L24.162109 11.033203L25.023438 10.783203L25.335938 9.9433594L25.238281 9.6054688L25.193359 9.515625L24.476562 8.9765625 z M 7.0976562 9.453125L6.7578125 9.546875L6.6621094 9.5917969L6.1113281 10.298828L6.3476562 11.164062L7.1816406 11.490234L7.5214844 11.398438L7.6191406 11.351562L8.1699219 10.644531L7.9316406 9.78125L7.0976562 9.453125 z M 11.398438 9.5859375L11.669922 9.6914062 A 1.0001 1.0001 0 0 0 10.996094 9.6640625 A 1.0001 1.0001 0 0 0 10.5 10.109375L10.623047 9.8769531 A 1.0001 1.0001 0 0 0 10.941406 11.554688L10.986328 11.572266 A 1.0001 1.0001 0 0 0 12.236328 11.103516L12.259766 11.060547 A 1.0001 1.0001 0 0 0 11.398438 9.5859375 z M 24.929688 12.974609 A 1.0001 1.0001 0 0 0 24.900391 12.976562 A 1.0001 1.0001 0 0 0 23.955078 13.929688L23.953125 13.980469 A 1.0001 1.0001 0 0 0 24.634766 14.988281L24.683594 15.003906 A 1.0001 1.0001 0 0 0 25.970703 13.771484L25.953125 14.050781 A 1.0001 1.0001 0 0 0 25.820312 13.474609 A 1.0001 1.0001 0 0 0 25.814453 13.466797 A 1.0001 1.0001 0 0 0 25.347656 13.119141L25.580078 13.195312 A 1.0001 1.0001 0 0 0 24.929688 12.974609 z M 5.0117188 13.007812 A 1.0001 1.0001 0 0 0 4.3554688 13.232422L4.5878906 13.148438 A 1.0001 1.0001 0 0 0 4.1835938 13.410156 A 1.0001 1.0001 0 0 0 3.9941406 13.867188L4.0273438 13.634766 A 1.0001 1.0001 0 0 0 5.2675781 15.029297L5.3144531 15.011719 A 1.0001 1.0001 0 0 0 5.9648438 14.212891L5.9726562 14.164062 A 1.0001 1.0001 0 0 0 5.0117188 13.007812 z M 28.236328 15.183594L27.394531 15.492188L27.138672 16.349609L27.259766 16.681641L27.306641 16.763672L28.056641 17.253906L28.898438 16.947266L29.15625 16.089844L29.035156 15.757812L28.986328 15.673828L28.236328 15.183594 z M 2.0917969 15.285156L1.2148438 15.464844L0.98046875 15.728516L0.9296875 15.810547L0.85351562 16.703125L1.5234375 17.298828L2.4003906 17.119141L2.6347656 16.855469L2.6855469 16.773438L2.7617188 15.880859L2.0917969 15.285156 z M 28.771484 18.957031L28.033203 19.462891L27.947266 19.710938L27.943359 19.708984L27.931641 19.744141L27.933594 19.751953L27.917969 19.794922L27.910156 19.855469L27.951172 19.861328L28.078125 20.628906L28.873047 21.041016L29.679688 20.650391L29.841797 20.337891L29.853516 20.302734L29.886719 20.158203L29.896484 20.097656L29.621094 19.246094L28.771484 18.957031 z M 1.4414062 19.085938L0.55273438 19.197266L0.109375 19.976562L0.15429688 20.326172L0.18164062 20.417969L0.8046875 21.064453L1.6933594 20.953125L2.1367188 20.173828L2.0917969 19.824219L2.0644531 19.732422L1.4414062 19.085938 z M 26.630859 22.166016L26.296875 22.277344L26.212891 22.322266L25.701172 23.058594L25.982422 23.908203L26.833984 24.191406L27.167969 24.080078L27.251953 24.033203L27.763672 23.298828L27.482422 22.447266L26.630859 22.166016 z M 2.8808594 22.287109L2.3203125 22.986328L2.546875 23.853516L2.8203125 24.074219L2.90625 24.119141L3.8007812 24.150391L4.3613281 23.449219L4.1367188 22.582031L3.8613281 22.363281L3.7753906 22.316406L2.8808594 22.287109 z M 7.09375 23L6.2929688 23.402344L6.1347656 24.283203L6.7460938 24.9375L7.09375 25L7.1894531 25L7.9902344 24.597656L8.1484375 23.716797L7.5371094 23.0625L7.1894531 23L7.09375 23 z M 11.042969 23L10.242188 23.402344L10.083984 24.283203L10.697266 24.9375L11.042969 25L11.140625 25L11.941406 24.597656L12.099609 23.716797L11.486328 23.0625L11.140625 23L11.042969 23 z M 14.994141 23L14.193359 23.402344L14.035156 24.283203L14.646484 24.9375L14.994141 25L15.089844 25L15.890625 24.597656L16.048828 23.716797L15.4375 23.0625L15.089844 23L14.994141 23 z M 18.943359 23L18.142578 23.402344L17.984375 24.283203L18.597656 24.9375L18.943359 25L19.041016 25L19.841797 24.597656L20 23.716797L19.386719 23.0625L19.041016 23L18.943359 23 z M 22.894531 23L22.09375 23.402344L21.935547 24.283203L22.546875 24.9375L22.894531 25L22.990234 25L23.791016 24.597656L23.949219 23.716797L23.337891 23.0625L22.990234 23L22.894531 23 z" fill="#FFFFFF" />
</svg>