<svg xmlns="http://www.w3.org/2000/svg" xmlns:xlink="http://www.w3.org/1999/xlink" viewBox="0 0 30 30" fill="#FFFFFF">
  <path d="M20.566406 0.35546875C19.125406 0.35546875 17.454484 1.1994063 16.396484 2.4414062C15.568484 3.4684063 14.679953 5.0775 15.001953 6.6875C16.488953 6.8715 18.098203 5.9373125 19.033203 4.6953125C20.075203 3.5453125 20.658406 1.9654688 20.566406 0.35546875 z M 10.630859 7.0390625C8.2698594 7.0850625 6.1074844 8.4801563 4.8964844 10.535156C4.0384844 12.007156 3.7014219 13.740906 3.7324219 15.503906C3.7784219 18.830906 5.0802813 22.295906 6.6132812 24.503906C7.7932812 26.190906 9.1276719 28 11.013672 28C12.715672 28 13.345359 26.865234 15.568359 26.865234C17.638359 26.865234 18.282172 28 20.076172 28C21.962172 28 23.203266 26.283078 24.322266 24.580078C25.732266 22.603078 26.208531 20.717625 26.269531 20.640625C26.208531 20.640625 22.651672 19.198844 22.513672 15.089844C22.513672 11.486844 25.441453 9.8621563 25.564453 9.7851562C23.969453 7.3321563 21.393734 7.0400625 20.427734 7.0390625C18.189734 7.0390625 16.212297 8.28125 15.154297 8.28125C14.050297 8.28125 12.439859 6.9780625 10.630859 7.0390625 z M 12.857422 12.009766C13.110672 11.973766 13.379109 12.034219 13.599609 12.199219C14.041609 12.530219 14.130828 13.158609 13.798828 13.599609L11.25 17L13.800781 20.400391C14.132781 20.841391 14.041609 21.467828 13.599609 21.798828C13.419609 21.933828 13.210953 21.998047 13.001953 21.998047C12.696953 21.998047 12.396219 21.861609 12.199219 21.599609L9.1992188 17.599609C8.9322188 17.244609 8.9322188 16.755391 9.1992188 16.400391L12.199219 12.400391C12.364719 12.179391 12.604172 12.045766 12.857422 12.009766 z M 17.140625 12.011719C17.393875 12.047844 17.633328 12.180844 17.798828 12.402344L20.798828 16.402344C21.065828 16.756344 21.066781 17.243609 20.800781 17.599609L17.800781 21.599609C17.604781 21.862609 17.303047 22 16.998047 22C16.789047 22 16.580391 21.935781 16.400391 21.800781C15.958391 21.469781 15.867219 20.841391 16.199219 20.400391L18.75 17.001953L16.199219 13.601562C15.867219 13.160562 15.958391 12.532172 16.400391 12.201172C16.620891 12.035172 16.887375 11.975594 17.140625 12.011719 z" fill="#FFFFFF" />
</svg>