<svg xmlns="http://www.w3.org/2000/svg" xmlns:xlink="http://www.w3.org/1999/xlink" viewBox="0 0 30 30" fill="#FFFFFF">
  <path d="M8.5859375 2C8.3299375 2 8.0739063 2.0979687 7.8789062 2.2929688L2.2929688 7.8789062C1.9019687 8.2699063 1.9019688 8.9029688 2.2929688 9.2929688L8.0859375 15.085938L9.5 13.671875L4.4140625 8.5859375L8.5859375 4.4140625L9.8789062 5.7070312L8.5859375 7L10 8.4140625L11.292969 7.1210938L12.378906 8.2070312L10.292969 10.292969L11.585938 11.585938L15.085938 8.0859375L13.792969 6.7929688L9.2929688 2.2929688C9.0979688 2.0979688 8.8419375 2 8.5859375 2 z M 23.826172 3C23.314922 3.0005 22.802609 3.1973906 22.412109 3.5878906L21 5L25 9L26.412109 7.5878906C27.193109 6.8068906 27.195062 5.5427188 26.414062 4.7617188L25.238281 3.5859375C24.847781 3.1954375 24.337422 2.9995 23.826172 3 z M 19 7L5.2304688 20.769531L6.5 21.5L7 23L8.5 23.5L9.2304688 24.769531L23 11L19 7 z M 21.914062 14.914062L18.414062 18.414062L19.707031 19.707031L21.792969 17.621094L22.878906 18.707031L21.585938 20L23 21.414062L24.292969 20.121094L25.585938 21.414062L21.414062 25.585938L16.328125 20.5L14.914062 21.914062L20.707031 27.707031C20.902031 27.902031 21.158062 28 21.414062 28C21.670063 28 21.926094 27.902031 22.121094 27.707031L27.707031 22.121094C28.098031 21.731094 28.098031 21.098031 27.707031 20.707031L23.207031 16.207031L21.914062 14.914062 z M 3.8925781 23.892578L3.0371094 26.308594 A 0.5 0.5 0 0 0 3 26.5 A 0.5 0.5 0 0 0 3.5 27 A 0.5 0.5 0 0 0 3.6816406 26.966797L6.109375 26.109375L3.8925781 23.892578 z" fill="#FFFFFF" />
</svg>